<?xml version="1.0" encoding="UTF-8"?>
<svg version="1.1" xmlns="http://www.w3.org/2000/svg" width="114" height="51">
<path d="M0 0 C37.62 0 75.24 0 114 0 C114 16.83 114 33.66 114 51 C76.38 51 38.76 51 0 51 C0 34.17 0 17.34 0 0 Z " fill="#0F0C0B" transform="translate(0,0)"/>
<path d="M0 0 C3.63 0 7.26 0 11 0 C11.33 0.66 11.66 1.32 12 2 C12.99 1.34 13.98 0.68 15 0 C19.3132535 -0.47925039 21.30586782 -0.47260063 24.9375 2 C25.9584375 2.99 25.9584375 2.99 27 4 C27.515625 3.34 28.03125 2.68 28.5625 2 C31 0 31 0 34.5 -0.375 C37.63050517 -0.03958873 39.44553139 0.23152173 42 2 C43.35439668 4.70879335 43.06501451 7.00933268 43 10 C41.02 10.33 39.04 10.66 37 11 C38.98 11 40.96 11 43 11 C41.125 14.875 41.125 14.875 40 16 C35.57136174 16.54796538 32.11197142 16.81363762 28.4375 14.125 C27 12 27 12 27 10 C23.7 10 20.4 10 17 10 C17 10.66 17 11.32 17 12 C21.455 11.505 21.455 11.505 26 11 C25.67 12.32 25.34 13.64 25 15 C21.53761913 16.73119043 17.78582345 16.47070629 14 16 C11.4375 14.4375 11.4375 14.4375 10 12 C9.75 8.25 9.75 8.25 10 5 C9.01 5.33 8.02 5.66 7 6 C6.67 9.3 6.34 12.6 6 16 C4.02 16 2.04 16 0 16 C0 10.72 0 5.44 0 0 Z " fill="#E5E5E5" transform="translate(53,21)"/>
<path d="M0 0 C2.5625 1.25 2.5625 1.25 4 3 C4 4.32 4 5.64 4 7 C2.02 7 0.04 7 -2 7 C-2 6.34 -2 5.68 -2 5 C-3.32 5 -4.64 5 -6 5 C-5.12511062 7.3313327 -5.12511062 7.3313327 -2.125 8 C-1.09375 8.33 -0.0625 8.66 1 9 C4 11 4 11 4.3984375 12.875 C4.39070313 13.57625 4.38296875 14.2775 4.375 15 C4.38273437 15.70125 4.39046875 16.4025 4.3984375 17.125 C4 19 4 19 1 21 C-1.59375 21.30078125 -1.59375 21.30078125 -4.5 21.3125 C-5.4590625 21.32925781 -6.418125 21.34601562 -7.40625 21.36328125 C-10 21 -10 21 -11.84375 19.73046875 C-13 18 -13 18 -13 14 C-11.02 14 -9.04 14 -7 14 C-7 14.66 -7 15.32 -7 16 C-5.35 16 -3.7 16 -2 16 C-2.80353553 13.86054904 -2.80353553 13.86054904 -4.77734375 13.21875 C-5.49019531 12.9815625 -6.20304687 12.744375 -6.9375 12.5 C-9.70455204 11.57597536 -10.89137369 11.10862631 -13 9 C-13.42151163 5.69815888 -13.62848726 3.81976599 -11.5625 1.125 C-7.7148918 -0.56419384 -4.13559673 -0.56153057 0 0 Z " fill="#F0F0F0" transform="translate(29,16)"/>
<path d="M0 0 C1.98 0 3.96 0 6 0 C6.33 1.65 6.66 3.3 7 5 C7.928125 4.938125 8.85625 4.87625 9.8125 4.8125 C13 5 13 5 14.6875 6.09375 C16.64499078 8.93677233 16.28856821 11.28487016 16.1875 14.6875 C16.16042969 15.86699219 16.13335937 17.04648437 16.10546875 18.26171875 C16.07066406 19.16535156 16.03585938 20.06898437 16 21 C14.02 21 12.04 21 10 21 C10 17.37 10 13.74 10 10 C8.68 10 7.36 10 6 10 C6 13.63 6 17.26 6 21 C4.02 21 2.04 21 0 21 C0 14.07 0 7.14 0 0 Z " fill="#F5F5F5" transform="translate(35,16)"/>
<path d="M0 0 C3.3 0 6.6 0 10 0 C10 1.65 10 3.3 10 5 C9.01 5.33 8.02 5.66 7 6 C6.67 9.3 6.34 12.6 6 16 C4.02 16 2.04 16 0 16 C0 10.72 0 5.44 0 0 Z " fill="#F6F6F6" transform="translate(53,21)"/>
<path d="M0 0 C0.33 0 0.66 0 1 0 C1 6.93 1 13.86 1 21 C-1 18 -1 18 -1.4375 14.4375 C-1.7159375 12.7359375 -1.7159375 12.7359375 -2 11 C-4.98646769 9.00902154 -7.59687262 8.05875074 -11 7 C-11 6.34 -11 5.68 -11 5 C-9.68 5 -8.36 5 -7 5 C-7 5.66 -7 6.32 -7 7 C-5.02 7 -3.04 7 -1 7 C-0.67 4.69 -0.34 2.38 0 0 Z " fill="#3F3D3C" transform="translate(34,16)"/>
<path d="M0 0 C1.2065625 0.0309375 1.2065625 0.0309375 2.4375 0.0625 C2.4375 1.7125 2.4375 3.3625 2.4375 5.0625 C0.7875 5.0625 -0.8625 5.0625 -2.5625 5.0625 C-3.125 3.125 -3.125 3.125 -3.5625 1.0625 C-2.5625 0.0625 -2.5625 0.0625 0 0 Z " fill="#E47B04" transform="translate(101.5625,31.9375)"/>
<path d="M0 0 C0 0.66 0 1.32 0 2 C-1.65 2 -3.3 2 -5 2 C-5 1.34 -5 0.68 -5 0 C-6.98 0 -8.96 0 -11 0 C-11.33 0.99 -11.66 1.98 -12 3 C-12 1.68 -12 0.36 -12 -1 C-7.31034294 -2.11658501 -4.46236469 -1.80619523 0 0 Z " fill="#454342" transform="translate(27,30)"/>
</svg>
